<mxfile host="app.diagrams.net" modified="2024-04-03T22:23:41.452Z" agent="Mozilla/5.0 (Macintosh; Intel Mac OS X 10_15_7) AppleWebKit/537.36 (KHTML, like Gecko) Chrome/123.0.0.0 Safari/537.36" etag="cqDk_c30tk0ZWEg0Sdfx" version="24.2.1" type="device">
  <diagram name="Page-1" id="HOJwUG74LWfEFWNBvIvv">
    <mxGraphModel dx="954" dy="606" grid="1" gridSize="10" guides="1" tooltips="1" connect="1" arrows="1" fold="1" page="1" pageScale="1" pageWidth="850" pageHeight="1100" math="0" shadow="0">
      <root>
        <mxCell id="0" />
        <mxCell id="1" parent="0" />
        <mxCell id="jYukw_DiyJe6nwLYxafM-2" value="" style="rounded=0;whiteSpace=wrap;html=1;fillColor=#0F0F0F;fillStyle=solid;" vertex="1" parent="1">
          <mxGeometry x="120" y="80" width="600" height="400" as="geometry" />
        </mxCell>
        <mxCell id="jYukw_DiyJe6nwLYxafM-3" value="&lt;font color=&quot;#ffffff&quot;&gt;Plant Classification Application&lt;/font&gt;" style="text;html=1;align=center;verticalAlign=middle;whiteSpace=wrap;rounded=0;" vertex="1" parent="1">
          <mxGeometry x="200" y="80" width="440" height="30" as="geometry" />
        </mxCell>
        <mxCell id="jYukw_DiyJe6nwLYxafM-4" value="" style="rounded=0;whiteSpace=wrap;html=1;strokeColor=#FFFFFF;fillColor=#092A5C;" vertex="1" parent="1">
          <mxGeometry x="130" y="120" width="120" height="350" as="geometry" />
        </mxCell>
        <mxCell id="jYukw_DiyJe6nwLYxafM-5" value="&lt;font color=&quot;#ffffff&quot;&gt;Search&lt;/font&gt;" style="text;html=1;align=center;verticalAlign=middle;whiteSpace=wrap;rounded=0;strokeColor=#3270AD;strokeWidth=2;" vertex="1" parent="1">
          <mxGeometry x="160" y="130" width="60" height="30" as="geometry" />
        </mxCell>
        <mxCell id="jYukw_DiyJe6nwLYxafM-6" value="&lt;font color=&quot;#f5f5f5&quot;&gt;Filters&lt;/font&gt;" style="text;html=1;align=center;verticalAlign=middle;whiteSpace=wrap;rounded=0;strokeColor=#3270AD;strokeWidth=2;" vertex="1" parent="1">
          <mxGeometry x="160" y="210" width="60" height="30" as="geometry" />
        </mxCell>
        <mxCell id="jYukw_DiyJe6nwLYxafM-9" value="" style="rounded=0;whiteSpace=wrap;html=1;fillColor=#000000;strokeWidth=2;strokeColor=#3270AD;" vertex="1" parent="1">
          <mxGeometry x="140" y="170" width="100" height="20" as="geometry" />
        </mxCell>
        <mxCell id="jYukw_DiyJe6nwLYxafM-11" value="" style="whiteSpace=wrap;html=1;aspect=fixed;strokeColor=#3270AD;fillColor=#000000;" vertex="1" parent="1">
          <mxGeometry x="140" y="260" width="10" height="10" as="geometry" />
        </mxCell>
        <mxCell id="jYukw_DiyJe6nwLYxafM-12" value="" style="whiteSpace=wrap;html=1;aspect=fixed;strokeColor=#3270AD;fillColor=#000000;" vertex="1" parent="1">
          <mxGeometry x="140" y="280" width="10" height="10" as="geometry" />
        </mxCell>
        <mxCell id="jYukw_DiyJe6nwLYxafM-13" value="" style="whiteSpace=wrap;html=1;aspect=fixed;strokeColor=#3270AD;fillColor=#000000;" vertex="1" parent="1">
          <mxGeometry x="140" y="300" width="10" height="10" as="geometry" />
        </mxCell>
        <mxCell id="jYukw_DiyJe6nwLYxafM-14" value="" style="whiteSpace=wrap;html=1;aspect=fixed;strokeColor=#3270AD;fillColor=#000000;" vertex="1" parent="1">
          <mxGeometry x="140" y="320" width="10" height="10" as="geometry" />
        </mxCell>
        <mxCell id="jYukw_DiyJe6nwLYxafM-15" value="" style="whiteSpace=wrap;html=1;aspect=fixed;strokeColor=#3270AD;fillColor=#000000;" vertex="1" parent="1">
          <mxGeometry x="140" y="340" width="10" height="10" as="geometry" />
        </mxCell>
        <mxCell id="jYukw_DiyJe6nwLYxafM-16" value="" style="whiteSpace=wrap;html=1;aspect=fixed;strokeColor=#3270AD;fillColor=#000000;" vertex="1" parent="1">
          <mxGeometry x="140" y="360" width="10" height="10" as="geometry" />
        </mxCell>
        <mxCell id="jYukw_DiyJe6nwLYxafM-17" value="" style="rounded=0;whiteSpace=wrap;html=1;strokeColor=#FFFFFF;fillColor=#000000;" vertex="1" parent="1">
          <mxGeometry x="260" y="120" width="450" height="300" as="geometry" />
        </mxCell>
        <mxCell id="jYukw_DiyJe6nwLYxafM-18" value="" style="rounded=0;whiteSpace=wrap;html=1;fillColor=#00CC00;strokeColor=#FFFFFF;" vertex="1" parent="1">
          <mxGeometry x="260" y="430" width="450" height="40" as="geometry" />
        </mxCell>
        <mxCell id="jYukw_DiyJe6nwLYxafM-19" value="&lt;font color=&quot;#66ff66&quot; style=&quot;font-size: 18px;&quot;&gt;Upload&lt;/font&gt;" style="text;html=1;align=center;verticalAlign=middle;whiteSpace=wrap;rounded=0;" vertex="1" parent="1">
          <mxGeometry x="450" y="435" width="60" height="30" as="geometry" />
        </mxCell>
        <mxCell id="jYukw_DiyJe6nwLYxafM-20" value="" style="whiteSpace=wrap;html=1;aspect=fixed;fillColor=#787878;strokeColor=#FFFFFF;" vertex="1" parent="1">
          <mxGeometry x="270" y="130" width="90" height="90" as="geometry" />
        </mxCell>
        <mxCell id="jYukw_DiyJe6nwLYxafM-23" value="IMG" style="text;html=1;align=center;verticalAlign=middle;whiteSpace=wrap;rounded=0;" vertex="1" parent="1">
          <mxGeometry x="285" y="160" width="60" height="30" as="geometry" />
        </mxCell>
        <mxCell id="jYukw_DiyJe6nwLYxafM-24" value="" style="whiteSpace=wrap;html=1;aspect=fixed;fillColor=#787878;strokeColor=#FFFFFF;" vertex="1" parent="1">
          <mxGeometry x="380" y="130" width="90" height="90" as="geometry" />
        </mxCell>
        <mxCell id="jYukw_DiyJe6nwLYxafM-25" value="" style="whiteSpace=wrap;html=1;aspect=fixed;fillColor=#787878;strokeColor=#FFFFFF;" vertex="1" parent="1">
          <mxGeometry x="500" y="130" width="90" height="90" as="geometry" />
        </mxCell>
        <mxCell id="jYukw_DiyJe6nwLYxafM-27" value="" style="whiteSpace=wrap;html=1;aspect=fixed;fillColor=#787878;strokeColor=#FFFFFF;" vertex="1" parent="1">
          <mxGeometry x="610" y="130" width="90" height="90" as="geometry" />
        </mxCell>
        <mxCell id="jYukw_DiyJe6nwLYxafM-28" value="" style="whiteSpace=wrap;html=1;aspect=fixed;fillColor=#787878;strokeColor=#FFFFFF;" vertex="1" parent="1">
          <mxGeometry x="270" y="235" width="90" height="90" as="geometry" />
        </mxCell>
        <mxCell id="jYukw_DiyJe6nwLYxafM-29" value="" style="whiteSpace=wrap;html=1;aspect=fixed;fillColor=#787878;strokeColor=#FFFFFF;" vertex="1" parent="1">
          <mxGeometry x="380" y="235" width="90" height="90" as="geometry" />
        </mxCell>
        <mxCell id="jYukw_DiyJe6nwLYxafM-30" value="" style="whiteSpace=wrap;html=1;aspect=fixed;fillColor=#787878;strokeColor=#FFFFFF;" vertex="1" parent="1">
          <mxGeometry x="500" y="235" width="90" height="90" as="geometry" />
        </mxCell>
        <mxCell id="jYukw_DiyJe6nwLYxafM-31" value="" style="whiteSpace=wrap;html=1;aspect=fixed;fillColor=#787878;strokeColor=#FFFFFF;" vertex="1" parent="1">
          <mxGeometry x="610" y="235" width="90" height="90" as="geometry" />
        </mxCell>
        <mxCell id="jYukw_DiyJe6nwLYxafM-33" value="IMG" style="text;html=1;align=center;verticalAlign=middle;whiteSpace=wrap;rounded=0;" vertex="1" parent="1">
          <mxGeometry x="395" y="160" width="60" height="30" as="geometry" />
        </mxCell>
        <mxCell id="jYukw_DiyJe6nwLYxafM-34" value="IMG" style="text;html=1;align=center;verticalAlign=middle;whiteSpace=wrap;rounded=0;" vertex="1" parent="1">
          <mxGeometry x="285" y="265" width="60" height="30" as="geometry" />
        </mxCell>
        <mxCell id="jYukw_DiyJe6nwLYxafM-35" value="IMG" style="text;html=1;align=center;verticalAlign=middle;whiteSpace=wrap;rounded=0;" vertex="1" parent="1">
          <mxGeometry x="395" y="260" width="60" height="30" as="geometry" />
        </mxCell>
        <mxCell id="jYukw_DiyJe6nwLYxafM-36" value="IMG" style="text;html=1;align=center;verticalAlign=middle;whiteSpace=wrap;rounded=0;" vertex="1" parent="1">
          <mxGeometry x="515" y="160" width="60" height="30" as="geometry" />
        </mxCell>
        <mxCell id="jYukw_DiyJe6nwLYxafM-37" value="IMG" style="text;html=1;align=center;verticalAlign=middle;whiteSpace=wrap;rounded=0;" vertex="1" parent="1">
          <mxGeometry x="625" y="160" width="60" height="30" as="geometry" />
        </mxCell>
        <mxCell id="jYukw_DiyJe6nwLYxafM-38" value="IMG" style="text;html=1;align=center;verticalAlign=middle;whiteSpace=wrap;rounded=0;" vertex="1" parent="1">
          <mxGeometry x="515" y="260" width="60" height="30" as="geometry" />
        </mxCell>
        <mxCell id="jYukw_DiyJe6nwLYxafM-39" value="IMG" style="text;html=1;align=center;verticalAlign=middle;whiteSpace=wrap;rounded=0;" vertex="1" parent="1">
          <mxGeometry x="625" y="260" width="60" height="30" as="geometry" />
        </mxCell>
      </root>
    </mxGraphModel>
  </diagram>
</mxfile>
